<svg xmlns="http://www.w3.org/2000/svg" xmlns:xlink="http://www.w3.org/1999/xlink" width="171" zoomAndPan="magnify" viewBox="0 0 128.25 30.000001" height="40" preserveAspectRatio="xMidYMid meet" version="1.0"><defs><clipPath id="ef9a658eeb"><path d="M 12.703125 10.109375 L 34.261719 10.109375 L 34.261719 21.347656 L 12.703125 21.347656 Z M 12.703125 10.109375 " clip-rule="nonzero"/></clipPath><clipPath id="7538bc3ddf"><path d="M 20.496094 10.769531 C 20.238281 11.226562 19.949219 11.664062 19.617188 12.070312 C 19.015625 11.765625 18.378906 11.683594 17.71875 11.75 C 16.734375 11.839844 15.914062 12.265625 15.257812 13.035156 C 15.019531 13.257812 14.855469 13.53125 14.71875 13.824219 C 14.597656 13.972656 14.539062 14.15625 14.484375 14.335938 C 14.128906 15.414062 14.136719 16.472656 14.660156 17.5 C 14.78125 17.8125 14.953125 18.09375 15.1875 18.328125 C 15.632812 18.90625 16.199219 19.296875 16.878906 19.515625 C 17.648438 19.789062 18.421875 19.808594 19.195312 19.539062 C 19.859375 19.359375 20.433594 19 20.867188 18.460938 C 21.707031 17.4375 22.273438 16.21875 22.957031 15.089844 C 23.199219 14.6875 23.445312 14.289062 23.6875 13.882812 C 24.199219 13.027344 24.660156 12.128906 25.425781 11.464844 C 26.355469 10.660156 27.410156 10.207031 28.617188 10.152344 C 30.070312 10.089844 31.355469 10.546875 32.4375 11.554688 C 33.816406 12.832031 34.410156 14.457031 34.222656 16.363281 C 34.082031 17.785156 33.464844 18.976562 32.429688 19.914062 C 31.246094 20.992188 29.859375 21.484375 28.296875 21.253906 C 26.816406 21.03125 25.542969 20.367188 24.613281 19.09375 C 24.898438 18.59375 25.234375 18.132812 25.558594 17.664062 C 25.773438 18.027344 26.058594 18.324219 26.347656 18.617188 C 27.792969 20.089844 30.046875 20.097656 31.527344 18.652344 C 33.140625 17.070312 33.121094 14.339844 31.492188 12.773438 C 29.917969 11.257812 27.296875 11.421875 25.953125 13.152344 C 25.636719 13.558594 25.40625 14.023438 25.132812 14.457031 C 24.007812 16.21875 23.125 18.140625 21.808594 19.769531 C 21.292969 20.222656 20.742188 20.628906 20.109375 20.894531 C 18.5625 21.542969 17.050781 21.417969 15.5625 20.683594 C 15.441406 20.601562 15.328125 20.523438 15.207031 20.445312 C 14.136719 19.730469 13.410156 18.734375 12.976562 17.496094 C 12.953125 17.398438 12.933594 17.300781 12.90625 17.203125 C 12.179688 14.421875 13.582031 11.527344 16.171875 10.511719 C 17.644531 9.933594 19.09375 10.019531 20.496094 10.769531 " clip-rule="nonzero"/></clipPath><clipPath id="2c7a5f3515"><path d="M 22.460938 9.496094 L 34.925781 9.496094 L 34.925781 22 L 22.460938 22 Z M 22.460938 9.496094 " clip-rule="nonzero"/></clipPath><clipPath id="2a100a6a7b"><path d="M 24.613281 19.089844 C 25.542969 20.363281 26.816406 21.03125 28.296875 21.253906 C 29.859375 21.484375 31.246094 20.992188 32.429688 19.914062 C 33.464844 18.972656 34.082031 17.78125 34.222656 16.363281 C 34.410156 14.457031 33.816406 12.832031 32.4375 11.550781 C 31.355469 10.546875 30.070312 10.089844 28.617188 10.152344 C 27.414062 10.207031 26.355469 10.660156 25.425781 11.464844 C 24.660156 12.128906 24.199219 13.023438 23.6875 13.882812 C 23.449219 14.289062 23.199219 14.6875 22.960938 15.085938 C 22.796875 14.972656 22.628906 14.859375 22.464844 14.742188 C 22.664062 14.234375 22.988281 13.800781 23.257812 13.332031 C 23.699219 12.578125 24.113281 11.804688 24.746094 11.195312 C 25.71875 10.261719 26.847656 9.6875 28.175781 9.542969 C 29.84375 9.359375 31.339844 9.796875 32.640625 10.890625 C 33.902344 11.945312 34.636719 13.324219 34.832031 15.011719 C 35.011719 16.585938 34.660156 18.019531 33.785156 19.304688 C 32.847656 20.691406 31.5625 21.566406 29.953125 21.863281 C 28.769531 22.078125 27.605469 21.957031 26.484375 21.460938 C 25.859375 21.179688 25.308594 20.789062 24.796875 20.332031 C 24.722656 20.269531 24.664062 20.183594 24.609375 20.105469 C 24.246094 19.589844 24.246094 19.589844 24.613281 19.09375 " clip-rule="nonzero"/></clipPath><clipPath id="b26e9c44af"><path d="M 21.796875 11.691406 L 32.730469 11.691406 L 32.730469 20.171875 L 21.796875 20.171875 Z M 21.796875 11.691406 " clip-rule="nonzero"/></clipPath><clipPath id="e5370e8774"><path d="M 21.808594 19.769531 C 23.125 18.140625 24.011719 16.21875 25.132812 14.457031 C 25.40625 14.019531 25.636719 13.558594 25.953125 13.152344 C 27.296875 11.421875 29.917969 11.257812 31.492188 12.773438 C 33.121094 14.339844 33.140625 17.070312 31.527344 18.652344 C 30.046875 20.097656 27.792969 20.089844 26.347656 18.613281 C 26.058594 18.320312 25.777344 18.023438 25.558594 17.664062 C 25.878906 17.105469 25.878906 17.109375 26.246094 17.609375 C 26.925781 18.542969 27.8125 19.097656 28.957031 19.074219 C 29.828125 19.058594 30.566406 18.683594 31.191406 18.03125 C 32.121094 17.066406 32.371094 15.46875 31.765625 14.242188 C 30.746094 12.171875 28.066406 11.746094 26.5625 13.417969 C 26.09375 13.933594 25.800781 14.574219 25.445312 15.167969 C 24.648438 16.496094 23.867188 17.835938 23.066406 19.164062 C 22.851562 19.515625 22.621094 19.867188 22.296875 20.128906 C 22.136719 20.007812 21.972656 19.886719 21.808594 19.769531 " clip-rule="nonzero"/></clipPath><clipPath id="8f0045a311"><path d="M 12.039062 9.445312 L 20.824219 9.445312 L 20.824219 17.875 L 12.039062 17.875 Z M 12.039062 9.445312 " clip-rule="nonzero"/></clipPath><clipPath id="5123aec074"><path d="M 20.496094 10.769531 C 19.09375 10.019531 17.640625 9.933594 16.171875 10.511719 C 13.582031 11.527344 12.179688 14.421875 12.90625 17.203125 C 12.933594 17.300781 12.953125 17.398438 12.976562 17.496094 C 12.773438 17.550781 12.683594 17.808594 12.457031 17.824219 C 12.0625 16.832031 11.992188 15.800781 12.160156 14.757812 C 12.601562 12.054688 14.457031 10.085938 17.042969 9.582031 C 18.253906 9.347656 19.417969 9.519531 20.527344 10.085938 C 20.875 10.261719 20.882812 10.292969 20.644531 10.613281 C 20.605469 10.671875 20.546875 10.71875 20.496094 10.769531 " clip-rule="nonzero"/></clipPath><clipPath id="339e7efc57"><path d="M 15.257812 19.761719 L 22.308594 19.761719 L 22.308594 22 L 15.257812 22 Z M 15.257812 19.761719 " clip-rule="nonzero"/></clipPath><clipPath id="2de4821e5a"><path d="M 21.808594 19.769531 C 21.972656 19.890625 22.136719 20.007812 22.296875 20.128906 C 21.605469 20.867188 20.789062 21.398438 19.839844 21.695312 C 18.351562 22.164062 16.898438 22.042969 15.492188 21.355469 C 15.421875 21.320312 15.34375 21.300781 15.296875 21.226562 C 15.328125 21.019531 15.550781 20.90625 15.5625 20.683594 C 17.050781 21.417969 18.5625 21.542969 20.109375 20.894531 C 20.742188 20.628906 21.292969 20.222656 21.808594 19.769531 " clip-rule="nonzero"/></clipPath><clipPath id="0eae9fde3a"><path d="M 19.089844 14.707031 L 22.964844 14.707031 L 22.964844 19.558594 L 19.089844 19.558594 Z M 19.089844 14.707031 " clip-rule="nonzero"/></clipPath><clipPath id="116c977411"><path d="M 22.464844 14.742188 C 22.628906 14.859375 22.792969 14.972656 22.957031 15.085938 C 22.273438 16.21875 21.707031 17.433594 20.867188 18.460938 C 20.433594 19 19.859375 19.359375 19.195312 19.539062 C 19.179688 19.332031 19.230469 19.113281 19.136719 18.914062 C 19.800781 18.617188 20.375 18.199219 20.765625 17.554688 C 21.289062 16.695312 21.792969 15.824219 22.308594 14.960938 C 22.355469 14.882812 22.414062 14.816406 22.464844 14.742188 " clip-rule="nonzero"/></clipPath><clipPath id="b403a6760f"><path d="M 12.449219 17.464844 L 15.5625 17.464844 L 15.5625 21.246094 L 12.449219 21.246094 Z M 12.449219 17.464844 " clip-rule="nonzero"/></clipPath><clipPath id="adfeac367c"><path d="M 15.5625 20.683594 C 15.550781 20.90625 15.328125 21.019531 15.296875 21.226562 C 14.945312 21.097656 14.652344 20.863281 14.367188 20.625 C 13.535156 19.917969 12.878906 19.066406 12.5 18.007812 C 12.480469 17.953125 12.46875 17.886719 12.457031 17.824219 C 12.683594 17.808594 12.773438 17.550781 12.976562 17.496094 C 13.410156 18.734375 14.136719 19.730469 15.207031 20.445312 C 15.328125 20.523438 15.441406 20.605469 15.5625 20.683594 " clip-rule="nonzero"/></clipPath><clipPath id="4d3da9b37c"><path d="M 15.207031 11.742188 L 17.761719 11.742188 L 17.761719 13.789062 L 15.207031 13.789062 Z M 15.207031 11.742188 " clip-rule="nonzero"/></clipPath><clipPath id="e08907d6af"><path d="M 15.257812 13.035156 C 15.914062 12.265625 16.734375 11.839844 17.71875 11.75 C 17.71875 11.964844 17.71875 12.175781 17.71875 12.390625 C 16.789062 12.542969 16.035156 13 15.460938 13.769531 C 15.3125 13.699219 15.359375 13.558594 15.351562 13.4375 C 15.34375 13.300781 15.382812 13.148438 15.257812 13.035156 " clip-rule="nonzero"/></clipPath><clipPath id="bac0c34bed"><path d="M 16.84375 18.84375 L 19.242188 18.84375 L 19.242188 19.761719 L 16.84375 19.761719 Z M 16.84375 18.84375 " clip-rule="nonzero"/></clipPath><clipPath id="a585077b8f"><path d="M 19.136719 18.914062 C 19.230469 19.117188 19.179688 19.332031 19.195312 19.539062 C 18.421875 19.804688 17.648438 19.789062 16.878906 19.515625 C 16.878906 19.300781 16.878906 19.082031 16.878906 18.867188 C 17.148438 18.878906 17.398438 19 17.667969 19.042969 C 18.167969 19.117188 18.652344 19.007812 19.136719 18.914062 " clip-rule="nonzero"/></clipPath><clipPath id="626b5a5c06"><path d="M 14.238281 13.789062 L 14.898438 13.789062 L 14.898438 17.515625 L 14.238281 17.515625 Z M 14.238281 13.789062 " clip-rule="nonzero"/></clipPath><clipPath id="6121cfd251"><path d="M 14.660156 17.5 C 14.136719 16.472656 14.128906 15.414062 14.484375 14.335938 C 14.539062 14.15625 14.597656 13.972656 14.71875 13.824219 C 14.824219 14.09375 14.753906 14.378906 14.769531 14.65625 C 14.777344 14.828125 14.765625 15 14.878906 15.148438 C 14.878906 15.4375 14.875 15.726562 14.871094 16.019531 C 14.75 16.082031 14.773438 16.199219 14.773438 16.304688 C 14.769531 16.597656 14.773438 16.890625 14.773438 17.183594 C 14.773438 17.300781 14.777344 17.421875 14.664062 17.5 " clip-rule="nonzero"/></clipPath><clipPath id="a2b9c926f8"><path d="M 15.15625 17.464844 L 16.894531 17.464844 L 16.894531 19.558594 L 15.15625 19.558594 Z M 15.15625 17.464844 " clip-rule="nonzero"/></clipPath><clipPath id="7dcd1878fc"><path d="M 16.878906 18.867188 C 16.878906 19.082031 16.878906 19.300781 16.878906 19.515625 C 16.199219 19.296875 15.632812 18.90625 15.1875 18.328125 C 15.246094 18.15625 15.246094 17.972656 15.246094 17.789062 C 15.246094 17.683594 15.222656 17.5625 15.347656 17.5 C 15.652344 18.011719 16.070312 18.40625 16.582031 18.691406 C 16.683594 18.746094 16.78125 18.808594 16.878906 18.867188 " clip-rule="nonzero"/></clipPath><clipPath id="6f88dc4caf"><path d="M 17.710938 11.691406 L 19.648438 11.691406 L 19.648438 12.613281 L 17.710938 12.613281 Z M 17.710938 11.691406 " clip-rule="nonzero"/></clipPath><clipPath id="6b9b6fcd98"><path d="M 17.71875 12.390625 C 17.71875 12.175781 17.71875 11.964844 17.71875 11.75 C 18.378906 11.683594 19.015625 11.765625 19.617188 12.070312 C 19.597656 12.121094 19.585938 12.175781 19.5625 12.222656 C 19.351562 12.617188 19.347656 12.628906 18.9375 12.5 C 18.535156 12.375 18.125 12.402344 17.71875 12.390625 " clip-rule="nonzero"/></clipPath><clipPath id="97e7401adb"><path d="M 14.695312 13.019531 L 15.460938 13.019531 L 15.460938 15.164062 L 14.695312 15.164062 Z M 14.695312 13.019531 " clip-rule="nonzero"/></clipPath><clipPath id="8c03fdc92e"><path d="M 14.878906 15.148438 C 14.765625 15 14.777344 14.828125 14.769531 14.65625 C 14.753906 14.378906 14.824219 14.09375 14.71875 13.824219 C 14.855469 13.527344 15.019531 13.257812 15.257812 13.035156 C 15.382812 13.148438 15.339844 13.300781 15.351562 13.4375 C 15.359375 13.558594 15.3125 13.699219 15.457031 13.769531 C 15.191406 14.195312 15.007812 14.65625 14.878906 15.144531 " clip-rule="nonzero"/></clipPath><clipPath id="8c972677c4"><path d="M 14.644531 16 L 15.359375 16 L 15.359375 18.332031 L 14.644531 18.332031 Z M 14.644531 16 " clip-rule="nonzero"/></clipPath><clipPath id="b9502aa0ee"><path d="M 15.347656 17.5 C 15.222656 17.5625 15.246094 17.683594 15.246094 17.789062 C 15.246094 17.972656 15.246094 18.15625 15.1875 18.328125 C 14.953125 18.09375 14.78125 17.8125 14.664062 17.5 C 14.777344 17.421875 14.773438 17.300781 14.773438 17.183594 C 14.773438 16.890625 14.769531 16.597656 14.773438 16.304688 C 14.773438 16.199219 14.75 16.082031 14.871094 16.019531 C 14.882812 16.566406 15.097656 17.039062 15.347656 17.5 " clip-rule="nonzero"/></clipPath><clipPath id="0cbfc3f50b"><path d="M 30.378906 17.464844 L 30.480469 17.464844 L 30.480469 17.566406 L 30.378906 17.566406 Z M 30.378906 17.464844 " clip-rule="nonzero"/></clipPath><clipPath id="67960d70f9"><path d="M 30.429688 17.539062 C 30.445312 17.523438 30.460938 17.511719 30.476562 17.5 C 30.460938 17.511719 30.445312 17.523438 30.429688 17.539062 " clip-rule="nonzero"/></clipPath></defs><g clip-path="url(#ef9a658eeb)"><g clip-path="url(#7538bc3ddf)"><path fill="#00a868" d="M 11.78125 9.1875 L 35.179688 9.1875 L 35.179688 22.269531 L 11.78125 22.269531 Z M 11.78125 9.1875 " fill-opacity="1" fill-rule="nonzero"/></g></g><g clip-path="url(#2c7a5f3515)"><g clip-path="url(#2a100a6a7b)"><path fill="#0d1f0d" d="M 11.78125 9.1875 L 35.179688 9.1875 L 35.179688 22.269531 L 11.78125 22.269531 Z M 11.78125 9.1875 " fill-opacity="1" fill-rule="nonzero"/></g></g><g clip-path="url(#b26e9c44af)"><g clip-path="url(#e5370e8774)"><path fill="#0d1f0d" d="M 11.78125 9.1875 L 35.179688 9.1875 L 35.179688 22.269531 L 11.78125 22.269531 Z M 11.78125 9.1875 " fill-opacity="1" fill-rule="nonzero"/></g></g><g clip-path="url(#8f0045a311)"><g clip-path="url(#5123aec074)"><path fill="#0d1f0d" d="M 11.78125 9.1875 L 35.179688 9.1875 L 35.179688 22.269531 L 11.78125 22.269531 Z M 11.78125 9.1875 " fill-opacity="1" fill-rule="nonzero"/></g></g><g clip-path="url(#339e7efc57)"><g clip-path="url(#2de4821e5a)"><path fill="#0d1f0d" d="M 11.78125 9.1875 L 35.179688 9.1875 L 35.179688 22.269531 L 11.78125 22.269531 Z M 11.78125 9.1875 " fill-opacity="1" fill-rule="nonzero"/></g></g><g clip-path="url(#0eae9fde3a)"><g clip-path="url(#116c977411)"><path fill="#0d1f0d" d="M 11.78125 9.1875 L 35.179688 9.1875 L 35.179688 22.269531 L 11.78125 22.269531 Z M 11.78125 9.1875 " fill-opacity="1" fill-rule="nonzero"/></g></g><g clip-path="url(#b403a6760f)"><g clip-path="url(#adfeac367c)"><path fill="#0d1f0d" d="M 11.78125 9.1875 L 35.179688 9.1875 L 35.179688 22.269531 L 11.78125 22.269531 Z M 11.78125 9.1875 " fill-opacity="1" fill-rule="nonzero"/></g></g><g clip-path="url(#4d3da9b37c)"><g clip-path="url(#e08907d6af)"><path fill="#0d1f0d" d="M 11.78125 9.1875 L 35.179688 9.1875 L 35.179688 22.269531 L 11.78125 22.269531 Z M 11.78125 9.1875 " fill-opacity="1" fill-rule="nonzero"/></g></g><g clip-path="url(#bac0c34bed)"><g clip-path="url(#a585077b8f)"><path fill="#0d1f0d" d="M 11.78125 9.1875 L 35.179688 9.1875 L 35.179688 22.269531 L 11.78125 22.269531 Z M 11.78125 9.1875 " fill-opacity="1" fill-rule="nonzero"/></g></g><g clip-path="url(#626b5a5c06)"><g clip-path="url(#6121cfd251)"><path fill="#0d1f0d" d="M 11.78125 9.1875 L 35.179688 9.1875 L 35.179688 22.269531 L 11.78125 22.269531 Z M 11.78125 9.1875 " fill-opacity="1" fill-rule="nonzero"/></g></g><g clip-path="url(#a2b9c926f8)"><g clip-path="url(#7dcd1878fc)"><path fill="#0d1f0d" d="M 11.78125 9.1875 L 35.179688 9.1875 L 35.179688 22.269531 L 11.78125 22.269531 Z M 11.78125 9.1875 " fill-opacity="1" fill-rule="nonzero"/></g></g><g clip-path="url(#6f88dc4caf)"><g clip-path="url(#6b9b6fcd98)"><path fill="#0d1f0d" d="M 11.78125 9.1875 L 35.179688 9.1875 L 35.179688 22.269531 L 11.78125 22.269531 Z M 11.78125 9.1875 " fill-opacity="1" fill-rule="nonzero"/></g></g><g clip-path="url(#97e7401adb)"><g clip-path="url(#8c03fdc92e)"><path fill="#0d1f0d" d="M 11.78125 9.1875 L 35.179688 9.1875 L 35.179688 22.269531 L 11.78125 22.269531 Z M 11.78125 9.1875 " fill-opacity="1" fill-rule="nonzero"/></g></g><g clip-path="url(#8c972677c4)"><g clip-path="url(#b9502aa0ee)"><path fill="#0d1f0d" d="M 11.78125 9.1875 L 35.179688 9.1875 L 35.179688 22.269531 L 11.78125 22.269531 Z M 11.78125 9.1875 " fill-opacity="1" fill-rule="nonzero"/></g></g><g clip-path="url(#0cbfc3f50b)"><g clip-path="url(#67960d70f9)"><path fill="#9a9999" d="M 11.78125 9.1875 L 35.179688 9.1875 L 35.179688 22.269531 L 11.78125 22.269531 Z M 11.78125 9.1875 " fill-opacity="1" fill-rule="nonzero"/></g></g><path fill="#00a868" d="M 10.792969 14.765625 L 10.792969 15.957031 L 6.476562 15.957031 L 6.476562 19.960938 L 11.292969 19.960938 L 11.292969 21.167969 L 5.042969 21.167969 L 5.042969 10.050781 L 11.039062 10.050781 L 11.039062 11.253906 L 6.476562 11.253906 L 6.476562 14.765625 Z M 10.792969 14.765625 " fill-opacity="1" fill-rule="nonzero"/><path fill="#00a868" d="M 44.769531 15.128906 L 44.769531 20.402344 C 44.457031 20.515625 44 20.640625 43.398438 20.789062 C 42.800781 20.9375 42.136719 21.011719 41.398438 21.011719 C 40.570312 21.011719 39.816406 20.894531 39.132812 20.667969 C 38.445312 20.4375 37.832031 20.066406 37.285156 19.558594 C 36.820312 19.105469 36.449219 18.523438 36.167969 17.820312 C 35.894531 17.109375 35.757812 16.324219 35.757812 15.464844 C 35.769531 14.371094 36.015625 13.394531 36.488281 12.542969 C 36.964844 11.6875 37.648438 11.019531 38.53125 10.53125 C 39.417969 10.039062 40.476562 9.792969 41.707031 9.792969 C 42.347656 9.792969 42.902344 9.847656 43.375 9.957031 C 43.851562 10.070312 44.207031 10.179688 44.449219 10.292969 L 44.105469 11.460938 C 43.808594 11.328125 43.464844 11.21875 43.078125 11.125 C 42.695312 11.03125 42.226562 10.984375 41.675781 10.984375 C 40.785156 10.984375 40.003906 11.164062 39.335938 11.515625 C 38.675781 11.867188 38.160156 12.371094 37.792969 13.027344 C 37.433594 13.683594 37.253906 14.476562 37.253906 15.398438 C 37.253906 16.324219 37.425781 17.121094 37.777344 17.785156 C 38.132812 18.449219 38.628906 18.957031 39.261719 19.3125 C 39.902344 19.664062 40.644531 19.835938 41.496094 19.835938 C 41.957031 19.835938 42.351562 19.808594 42.667969 19.746094 C 42.984375 19.6875 43.222656 19.621094 43.382812 19.542969 L 43.382812 16.269531 L 41.152344 16.269531 L 41.152344 15.128906 Z M 44.769531 15.128906 " fill-opacity="1" fill-rule="nonzero"/><path fill="#00a868" d="M 52.628906 14.570312 L 52.628906 15.742188 L 48.359375 15.742188 L 48.359375 19.707031 L 53.121094 19.707031 L 53.121094 20.894531 L 46.941406 20.894531 L 46.941406 9.910156 L 52.875 9.910156 L 52.875 11.097656 L 48.359375 11.097656 L 48.359375 14.570312 Z M 52.628906 14.570312 " fill-opacity="1" fill-rule="nonzero"/><path fill="#00a868" d="M 56.300781 20.894531 L 54.964844 20.894531 L 54.964844 9.910156 L 56.515625 9.910156 L 60.035156 15.464844 C 60.445312 16.109375 60.808594 16.726562 61.132812 17.308594 C 61.457031 17.898438 61.746094 18.472656 62.003906 19.035156 L 62.035156 19.015625 C 61.972656 18.277344 61.925781 17.554688 61.90625 16.851562 C 61.882812 16.144531 61.871094 15.363281 61.871094 14.503906 L 61.871094 9.910156 L 63.210938 9.910156 L 63.210938 20.894531 L 61.78125 20.894531 L 58.285156 15.316406 C 57.910156 14.710938 57.542969 14.097656 57.1875 13.476562 C 56.835938 12.859375 56.519531 12.25 56.234375 11.648438 L 56.1875 11.664062 C 56.230469 12.367188 56.261719 13.066406 56.277344 13.773438 C 56.292969 14.480469 56.300781 15.289062 56.300781 16.203125 Z M 56.300781 20.894531 " fill-opacity="1" fill-rule="nonzero"/><path fill="#00a868" d="M 71.378906 14.570312 L 71.378906 15.742188 L 67.113281 15.742188 L 67.113281 19.707031 L 71.871094 19.707031 L 71.871094 20.894531 L 65.691406 20.894531 L 65.691406 9.910156 L 71.625 9.910156 L 71.625 11.097656 L 67.113281 11.097656 L 67.113281 14.570312 Z M 71.378906 14.570312 " fill-opacity="1" fill-rule="nonzero"/><path fill="#00a868" d="M 73.714844 20.894531 L 73.714844 10.054688 C 74.074219 9.980469 74.496094 9.921875 74.980469 9.882812 C 75.457031 9.847656 75.945312 9.828125 76.4375 9.828125 C 77.199219 9.828125 77.835938 9.898438 78.34375 10.039062 C 78.855469 10.175781 79.28125 10.40625 79.613281 10.722656 C 80.191406 11.234375 80.484375 11.929688 80.484375 12.804688 C 80.484375 13.539062 80.28125 14.140625 79.878906 14.609375 C 79.476562 15.082031 78.988281 15.414062 78.410156 15.613281 L 78.410156 15.660156 C 78.835938 15.804688 79.175781 16.066406 79.433594 16.449219 C 79.695312 16.824219 79.894531 17.300781 80.023438 17.875 C 80.210938 18.636719 80.371094 19.277344 80.5 19.796875 C 80.636719 20.3125 80.757812 20.679688 80.871094 20.894531 L 79.402344 20.894531 C 79.320312 20.746094 79.214844 20.441406 79.089844 19.984375 C 78.960938 19.527344 78.824219 18.957031 78.671875 18.269531 C 78.507812 17.511719 78.257812 16.972656 77.925781 16.652344 C 77.597656 16.332031 77.113281 16.160156 76.472656 16.136719 L 75.132812 16.136719 L 75.132812 20.894531 Z M 75.132812 11.050781 L 75.132812 15.0625 L 76.585938 15.0625 C 77.347656 15.0625 77.949219 14.875 78.390625 14.496094 C 78.839844 14.113281 79.066406 13.605469 79.066406 12.96875 C 79.066406 12.265625 78.828125 11.75 78.359375 11.425781 C 77.894531 11.097656 77.285156 10.929688 76.539062 10.917969 C 76.195312 10.917969 75.90625 10.933594 75.667969 10.960938 C 75.433594 10.988281 75.253906 11.015625 75.132812 11.050781 Z M 75.132812 11.050781 " fill-opacity="1" fill-rule="nonzero"/><path fill="#00a868" d="M 88.15625 17.441406 L 84.269531 17.441406 L 83.128906 20.894531 L 81.660156 20.894531 L 85.390625 9.910156 L 87.097656 9.910156 L 90.847656 20.894531 L 89.339844 20.894531 Z M 84.554688 16.332031 L 87.871094 16.332031 L 86.796875 13.167969 C 86.675781 12.8125 86.570312 12.46875 86.484375 12.132812 C 86.394531 11.800781 86.308594 11.476562 86.222656 11.164062 L 86.1875 11.164062 C 86.109375 11.488281 86.027344 11.816406 85.933594 12.148438 C 85.839844 12.484375 85.742188 12.816406 85.636719 13.148438 Z M 84.554688 16.332031 " fill-opacity="1" fill-rule="nonzero"/><path fill="#00a868" d="M 94.550781 20.894531 L 94.550781 11.113281 L 91.210938 11.113281 L 91.210938 9.910156 L 99.351562 9.910156 L 99.351562 11.113281 L 95.988281 11.113281 L 95.988281 20.894531 Z M 94.550781 20.894531 " fill-opacity="1" fill-rule="nonzero"/><path fill="#00a868" d="M 100.570312 9.910156 L 101.988281 9.910156 L 101.988281 20.894531 L 100.570312 20.894531 Z M 100.570312 9.910156 " fill-opacity="1" fill-rule="nonzero"/><path fill="#00a868" d="M 108.914062 9.726562 C 109.914062 9.726562 110.785156 9.964844 111.523438 10.441406 C 112.261719 10.914062 112.835938 11.566406 113.246094 12.402344 C 113.65625 13.242188 113.863281 14.199219 113.863281 15.285156 C 113.863281 16.546875 113.628906 17.609375 113.164062 18.46875 C 112.707031 19.328125 112.085938 19.976562 111.3125 20.421875 C 110.539062 20.859375 109.6875 21.078125 108.757812 21.078125 C 107.789062 21.078125 106.933594 20.84375 106.191406 20.378906 C 105.445312 19.910156 104.863281 19.253906 104.441406 18.417969 C 104.027344 17.582031 103.820312 16.609375 103.820312 15.496094 C 103.820312 14.335938 104.035156 13.328125 104.476562 12.460938 C 104.914062 11.597656 105.519531 10.925781 106.289062 10.449219 C 107.0625 9.96875 107.941406 9.726562 108.914062 9.726562 Z M 108.855469 10.886719 C 108.070312 10.886719 107.414062 11.101562 106.894531 11.535156 C 106.375 11.960938 105.984375 12.523438 105.722656 13.214844 C 105.460938 13.910156 105.328125 14.660156 105.328125 15.464844 C 105.328125 16.246094 105.464844 16.976562 105.738281 17.65625 C 106.011719 18.328125 106.410156 18.875 106.9375 19.296875 C 107.460938 19.710938 108.097656 19.917969 108.839844 19.917969 C 109.589844 19.917969 110.226562 19.714844 110.753906 19.304688 C 111.277344 18.890625 111.675781 18.332031 111.949219 17.636719 C 112.222656 16.9375 112.359375 16.175781 112.359375 15.347656 C 112.359375 14.808594 112.289062 14.273438 112.148438 13.742188 C 112.003906 13.207031 111.785156 12.722656 111.492188 12.296875 C 111.199219 11.867188 110.835938 11.523438 110.390625 11.269531 C 109.953125 11.015625 109.441406 10.886719 108.855469 10.886719 Z M 108.855469 10.886719 " fill-opacity="1" fill-rule="nonzero"/><path fill="#00a868" d="M 117.039062 20.894531 L 115.703125 20.894531 L 115.703125 9.910156 L 117.253906 9.910156 L 120.773438 15.464844 C 121.183594 16.109375 121.546875 16.726562 121.871094 17.308594 C 122.195312 17.898438 122.484375 18.472656 122.742188 19.035156 L 122.773438 19.015625 C 122.710938 18.277344 122.664062 17.554688 122.644531 16.851562 C 122.621094 16.144531 122.609375 15.363281 122.609375 14.503906 L 122.609375 9.910156 L 123.949219 9.910156 L 123.949219 20.894531 L 122.519531 20.894531 L 119.023438 15.316406 C 118.648438 14.710938 118.28125 14.097656 117.925781 13.476562 C 117.574219 12.859375 117.257812 12.25 116.972656 11.648438 L 116.925781 11.664062 C 116.96875 12.367188 117 13.066406 117.015625 13.773438 C 117.03125 14.480469 117.039062 15.289062 117.039062 16.203125 Z M 117.039062 20.894531 " fill-opacity="1" fill-rule="nonzero"/></svg>